<svg id="Layer_1" data-name="Layer 1" xmlns="http://www.w3.org/2000/svg" viewBox="0 0 16 16"><defs><style>.cls-1{fill:#fff;}</style></defs><title>accounts_statusbar_inverse_16x16</title><path class="cls-1" d="M14.83,8.24a4.92,4.92,0,0,0-.48-1.07,5,5,0,0,0-.75-.91A4.63,4.63,0,0,0,13,5.8a3.26,3.26,0,0,0,1-2.37,3.25,3.25,0,0,0-.26-1.28A3.3,3.3,0,0,0,12,.4,3.14,3.14,0,0,0,10.69.13,3.09,3.09,0,0,0,9.41.4a3.45,3.45,0,0,0-1,.7,3.45,3.45,0,0,0-.7,1,3.09,3.09,0,0,0-.27,1.28,3.18,3.18,0,0,0,.36,1.49,3.31,3.31,0,0,0,.64.88,5.18,5.18,0,0,0-.74.59,5.18,5.18,0,0,0-.59.74,3.32,3.32,0,0,0-.88-.64,3.24,3.24,0,0,0-1.49-.36,3.09,3.09,0,0,0-1.28.27,3.45,3.45,0,0,0-1,.7,3.45,3.45,0,0,0-.7,1,3.09,3.09,0,0,0-.27,1.28,3.18,3.18,0,0,0,.36,1.49,3.31,3.31,0,0,0,.64.88,5.3,5.3,0,0,0-.6.46,5,5,0,0,0-.75.91,4.13,4.13,0,0,0-.48,1.07,4.39,4.39,0,0,0-.17,1.19v.3H2v-.3a2.62,2.62,0,0,1,.22-1,2.72,2.72,0,0,1,1.44-1.44,2.62,2.62,0,0,1,1-.22,2.67,2.67,0,0,1,1,.22,2.83,2.83,0,0,1,.86.58,2.72,2.72,0,0,1,.58.86,2.65,2.65,0,0,1,.21,1v.3H9v-.3a4.38,4.38,0,0,0-.16-1.19,4.92,4.92,0,0,0-.48-1.07,4.66,4.66,0,0,0-.75-.91A4.63,4.63,0,0,0,7,11.8,3.26,3.26,0,0,0,8,9.43a2.62,2.62,0,0,1,.22-1A2.72,2.72,0,0,1,9.65,6.95a2.62,2.62,0,0,1,1-.22,2.67,2.67,0,0,1,1,.22,2.72,2.72,0,0,1,1.44,1.44,2.61,2.61,0,0,1,.21,1v.3H15v-.3A4.38,4.38,0,0,0,14.83,8.24ZM6.26,10.09a1.78,1.78,0,0,1-.91.91,1.62,1.62,0,0,1-.66.13A1.57,1.57,0,0,1,4,11a1.73,1.73,0,0,1-.54-.37,1.57,1.57,0,0,1-.37-.54A1.59,1.59,0,0,1,3,9.43a1.62,1.62,0,0,1,.14-.65,1.57,1.57,0,0,1,.37-.54A1.57,1.57,0,0,1,4,7.87a1.58,1.58,0,0,1,.65-.14,1.66,1.66,0,0,1,.66.14,1.78,1.78,0,0,1,.91.91,1.64,1.64,0,0,1,.13.65A1.62,1.62,0,0,1,6.26,10.09Zm6-6a1.78,1.78,0,0,1-.91.91,1.62,1.62,0,0,1-.66.13A1.57,1.57,0,0,1,10,5a1.73,1.73,0,0,1-.54-.37,1.57,1.57,0,0,1-.37-.54A1.63,1.63,0,0,1,9,3.43a1.65,1.65,0,0,1,.14-.65,1.57,1.57,0,0,1,.37-.54,1.71,1.71,0,0,1,1.19-.51,1.66,1.66,0,0,1,.66.14,1.57,1.57,0,0,1,.54.37,1.73,1.73,0,0,1,.37.54,1.64,1.64,0,0,1,.13.65A1.62,1.62,0,0,1,12.26,4.09Z"/></svg>