<svg id="Layer_1" data-name="Layer 1" xmlns="http://www.w3.org/2000/svg" viewBox="0 0 16 16"><title>collation</title><path d="M3.91,6.14H6.24l.34,1h1l-2-6h-1l-2,6h1Zm1.16-3.5.84,2.5H4.24Z"/><polygon points="12.29 12.94 12.29 1.15 11.29 1.15 11.29 12.94 10.02 11.67 9.32 12.37 11.79 14.86 14.27 12.37 13.57 11.67 12.29 12.94"/><path d="M5.78,11.49a1.64,1.64,0,0,1,.65.13,1.69,1.69,0,0,1,.9.9,1.69,1.69,0,0,1,0,1.31,1.69,1.69,0,0,1-.9.9,1.64,1.64,0,0,1-.65.13H3V8.57H5.78a1.43,1.43,0,0,1,.57.11,1.45,1.45,0,0,1,.78.78,1.47,1.47,0,0,1,0,1.14,1.45,1.45,0,0,1-.78.78A1.43,1.43,0,0,1,5.78,11.49Zm-1.46-.22H5a.86.86,0,0,0,.35-.07.91.91,0,0,0,.48-.48.88.88,0,0,0,0-.7.91.91,0,0,0-.48-.48A.86.86,0,0,0,5,9.46H4.32Zm.9,2.7a.86.86,0,0,0,.35-.07A.91.91,0,0,0,6,13.41a.88.88,0,0,0,0-.7.91.91,0,0,0-.48-.48.86.86,0,0,0-.35-.07h-.9V14Z"/></svg>