<svg id="Icon" xmlns="http://www.w3.org/2000/svg" width="16" height="16" viewBox="0 0 16 16"><defs><style>.icon-canvas-transparent-3,.icon-vs-out-10{fill:#f6f6f6;}.icon-canvas-transparent-3{opacity:0;}.icon-vs-bg-10{fill:#424242;}.icon-vs-fg-4{fill:#f0eff1;}</style></defs><title>ScriptToClipboard_16x</title><path id="Canvas" class="icon-canvas-transparent-3" d="M16,16H0V0H16Z"/><path id="Outline" class="icon-vs-out-10" d="M15,9v4H14v3H2S2,3,2,3H4V2H5a3.25,3.25,0,0,1,6,0h1V3h2V9Z"/><path id="Icon-2" data-name="Icon" class="icon-vs-bg-10" d="M7,9H5V8H8Zm4-2V6H5V7h6ZM5,10v1l1-1Zm1,2H5v1H7Zm2,2,1,1H3V4H5V3H6a2,2,0,0,1,4,0h1V4h2V7H12V5H4v9ZM7,3A1,1,0,0,0,8,4,1,1,0,1,0,7,3Zm7,7H10l2-2H10L7,11l3,3h2l-2-2h4Z"/><path id="Fill" class="icon-vs-fg-4" d="M7,3A1,1,0,1,1,8,4,1,1,0,0,1,7,3ZM7,13H5V12H6L5,11V10H6L7,9H5V8H8L9,7H5V6h6V7h1V5H4v9H8Z"/></svg>