<svg xmlns="http://www.w3.org/2000/svg" width="16" height="16" viewBox="0 0 16 16"><title>ChangeConnection_16x</title><path d="M16,16H0V0H16Z" fill="#f6f6f6" opacity="0"/><path d="M15,4V.88A2.7,2.7,0,0,0,13,0a2.62,2.62,0,0,0-2,.88,2.72,2.72,0,0,0-4,0V3.59L3.41,0H2.59L0,2.59v.83L6.59,10l.42.36V11H9v5h4V11h2V7h1V4Z" fill="#f6f6f6"/><path d="M10,1.94a1,1,0,0,0-2,0V4h2Z" fill="#424242"/><path d="M14,1.94a1,1,0,0,0-2,0V4h2Z" fill="#424242"/><polygon points="8.41 5 10 6.58 11 7.75 11 11 10 11 10 15 12 15 12 10 14 10 14 6 15 6 15 5 8.41 5" fill="#424242"/><path d="M9,7,7,9,3,5,5,3ZM3,1,1,3,2,4,4,2Zm5,9h2V8Z" fill="#00539c"/></svg>