<svg xmlns="http://www.w3.org/2000/svg" viewBox="0 0 16 16"><title>Disconnect_16x</title><rect width="16" height="16" fill="#f6f6f6" opacity="0"/><path d="M15,4V1a2.765,2.765,0,0,0-2-1,2.763,2.763,0,0,0-2,1A2.764,2.764,0,0,0,9,0,2.566,2.566,0,0,0,8,.251V0H6.274L4.093,1.95,2.9.513A1.615,1.615,0,0,0,1.694,0,1.715,1.715,0,0,0,.5.467a1.649,1.649,0,0,0,.03,2.4L1.8,4,.5,5.165A1.641,1.641,0,0,0,0,6.349,1.665,1.665,0,0,0,.5,7.531,1.717,1.717,0,0,0,1.695,8a1.631,1.631,0,0,0,1.228-.544L4.094,6.05,6.274,8H7v3H9v5h4V11h2V7h1V4ZM7,2.563V4H6v.238L5.8,4Z" fill="#f6f6f6"/><path d="M10,4H8V2A1.054,1.054,0,0,1,9,1a1.053,1.053,0,0,1,1,1Z" fill="#424242"/><path d="M14,2a1,1,0,0,0-2,0V4h2Z" fill="#424242"/><polygon points="7 5 7 5.438 7.468 6 8 6 8 6.639 8 8 8 10 10 10 10 15 12 15 12 10 14 10 14 6 15 6 15 5 7 5" fill="#424242"/><path d="M4.5,4,7,7H6.656L3.988,4.615l-1.833,2.2a.709.709,0,0,1-.955,0,.65.65,0,0,1,0-.937L3.3,4,1.2,2.122a.65.65,0,0,1,0-.937.71.71,0,0,1,.955,0l1.833,2.2L6.656,1H7Z" fill="#a1260d"/></svg>